<?xml version="1.0" encoding="UTF-8"?>
<!DOCTYPE svg PUBLIC "-//W3C//DTD SVG 1.1//EN" "http://www.w3.org/Graphics/SVG/1.1/DTD/svg11.dtd">
<!-- Creator: CorelDRAW 2019 (64-Bit) -->
<svg xmlns="http://www.w3.org/2000/svg" xml:space="preserve" width="52.5014mm" height="49.7589mm" version="1.1" style="shape-rendering:geometricPrecision; text-rendering:geometricPrecision; image-rendering:optimizeQuality; fill-rule:evenodd; clip-rule:evenodd"
viewBox="0 0 55691.54 52782.4"
 xmlns:xlink="http://www.w3.org/1999/xlink">
 <defs>
  <style type="text/css">
   <![CDATA[
    .fil1 {fill:#FEFEFE}
    .fil0 {fill:#E42924}
   ]]>
  </style>
 </defs>
 <g id="Layer_x0020_1">
  <metadata id="CorelCorpID_0Corel-Layer"/>
  <rect class="fil0" x="-0.03" y="0.04" width="55691.62" height="52782.4" rx="15934.22" ry="15934.22"/>
  <g id="_2180990934464">
   <g>
    <path class="fil1" d="M24709.94 29465.02c0,-907.69 361.3,-1544.9 1100.97,-1917.97 557.22,-281.1 1238.87,-281.1 1796.08,0 1882.11,949.38 1207.15,3794.56 -898.04,3794.56 -1083.25,0 -1999.01,-918.62 -1999.01,-1876.6zm-571.11 -4569.13c99.39,426.85 63.86,880.01 -178.31,1249.58 -232.2,354.4 -560.29,567.61 -1002,630.94 -362.78,51.98 -365.86,-17.18 -696.28,-44.66l-272.19 584.48c-75.31,168.56 -201.12,484.77 -217.35,680.16 447.32,104.17 871.63,840.44 844.69,1337.94 -40.95,754.73 -450.82,1022.68 -885.52,1313.75 76.8,159.96 137.37,406.91 198.26,576.84 73.62,205.05 204.94,369.78 250.55,565.39 720.26,-167.81 1437.55,-86.45 1823.45,624.15 337,620.44 120.08,1018.97 93.88,1334.02 776.48,410.83 764.92,310.17 1223.91,530.38 136.41,-510.97 762.58,-913.53 1350.03,-930.82 582.57,-17.08 1233.46,463.13 1342.4,930.82 379.22,-8.49 1252.55,-508.53 1346.32,-530.38 -124.53,-534.41 -262.11,-972.19 255.33,-1580.43 327.56,-384.95 1122.61,-617.05 1621.27,-377.74 60.68,-260.52 448.7,-854.02 448.7,-1305.48 -220.43,-51.34 -468.65,-295.21 -589.04,-471.62 -348.35,-510.55 -334.99,-1098.95 -21.53,-1607.48 153.6,-249.07 329.26,-370.74 569.74,-531.76l-356.1 -867.7c-58.66,-119.76 -100.98,-135.57 -133.44,-274.53 -556.48,129.63 -1064.69,60.46 -1480.51,-355.36 -383.89,-383.89 -549.79,-1074.98 -355.25,-1480.51l-611.85 -285.66c-198.57,-78.81 -428.76,-203.88 -693.63,-203.88 -102.89,385.38 -749.11,734.37 -1264.64,734.37 -476.6,0 -1138.09,-407.23 -1223.8,-775.1 -244.4,5.41 -526.35,133.23 -728.85,209.39l-658.2 320.88z"/>
    <path class="fil1" d="M30870 24120.79c0,-332.23 140.45,-659.79 319.82,-822.41 643.67,-583.74 1511.69,-252.14 1762.03,290.86 378.8,821.67 -180.44,1596.34 -986.4,1606.63 -579.92,7.43 -1095.45,-444.67 -1095.45,-1075.08zm81.57 -2162.15c-559.23,0 -378.06,-89.85 -652.69,-163.15 -213.43,142.88 -428.87,317.8 -571.11,530.28 173.01,327.03 163.15,228.91 163.15,652.79 0,274.21 -299.56,652.69 -734.26,652.69 -21.11,252.78 -40.84,461.01 -40.84,775.1 267.1,62.27 357.69,64.39 541.94,233.26 511.82,469.28 45.29,1093.54 29.17,1153.79 124.85,186.38 263.07,365.22 448.81,489.54 671.68,-449.76 1321.92,-129.73 1387.05,652.69l734.26 0c10.82,-484.56 462.81,-898.36 984.28,-782.21 249.49,55.58 239.73,101.94 402.77,211.09 245.67,-65.56 442.87,-338.81 571.11,-530.28 -70.33,-263.39 -203.98,-164.1 -203.98,-611.95 0,-425.15 355.67,-765.76 775.1,-775.1l0 -775.1c-217.14,-4.88 -405.95,-96.21 -522.11,-212.15 -374.56,-373.81 -256.28,-742.43 -49.01,-1134.17l-55.69 -66.62c-4.67,-5.52 -13.37,-16.12 -18.67,-22.17 -32.25,-36.81 -42.64,-48.16 -78.18,-84.97 -56.86,-59.19 -125.81,-136.63 -184.04,-185.32 -256.07,-214.7 -68.21,32.78 -805.65,32.78 -508,0 -640.7,-624.26 -693.53,-734.37l-734.37 0c-87.94,377.53 -376.89,693.53 -693.53,693.53z"/>
   </g>
   <g>
    <path class="fil1" d="M21687.62 22904.63c63.33,80.3 130.16,150.2 200.27,208.86 68.84,57.71 141.82,105.55 218.31,142.78 153.49,74.78 308.36,112.23 464.3,112.23 67.36,0 132.81,-6.68 195.39,-19.84 62.8,-13.15 125.06,-33.31 186.38,-60.25 60.89,-26.73 118.17,-60.04 171.21,-99.5 53.89,-40.1 104.59,-87.09 151.69,-140.66 47.73,-54.63 90.91,-115.41 129.2,-182.24 39.25,-68.42 73.72,-143.42 103.21,-224.25 29.6,-81.25 51.87,-168.45 66.62,-261.27 14.74,-92.92 22.17,-194.01 22.17,-302.85 0,-102.79 -6.89,-197.73 -20.47,-284.28 -13.79,-85.82 -34.47,-166.86 -62.16,-242.28 -28,-76.27 -59.83,-144.79 -95.47,-205.36 -35.64,-60.68 -75.63,-115.09 -119.44,-162.51 -44.13,-47.73 -91.76,-90.06 -142.57,-126.66 -49.86,-35.75 -103.53,-66.3 -160.49,-91.01 -56.54,-24.61 -114.56,-43.28 -173.33,-55.69l-3.71 -0.85c-56.33,-11.56 -114.56,-17.4 -174.28,-17.4 -84.75,0 -167.92,11.67 -249.39,35.01 -82.53,23.66 -164.21,59.4 -244.29,106.92 -78.92,46.67 -152.11,106.82 -218.94,179.69 -68.31,74.57 -130.16,162.19 -185.21,262.75 -23.12,42.54 -71.18,63.12 -116.37,53.57l-86.24 -18.35c-53.57,-11.24 -89.21,-60.99 -84.65,-114.24l104.59 -2219.75c2.65,-57.39 50.28,-102.15 107.14,-102.15l2205.43 -0.32c59.4,0 107.56,48.16 107.56,107.56l-6.68 371.37c-0.85,58.55 -48.8,105.33 -107.14,105.44l-2016.19 0.42 -50.6 1242.26 18.78 -16.76c44.98,-39.35 92.29,-75.53 141.51,-108.2 50.17,-33.2 102.36,-63.22 156.14,-89.42l8.49 -3.71c52.51,-25.35 105.55,-47.63 158.27,-66.4 56.75,-20.15 115.62,-37.55 176.3,-51.87 60.25,-14.21 121.25,-25.03 182.45,-32.14 61.74,-7.21 123.05,-10.82 183.83,-10.82 85.07,0 170.68,7.32 256.28,21.75 85.18,14.21 169.62,35.85 252.57,64.18 85.82,29.38 166.96,67.46 242.91,114.14 75.21,46.25 146.39,101.62 212.79,165.9 66.4,64.18 126.34,137.37 179.59,219.05 52.72,81.15 98.97,170.68 138.22,267.63l2.12 5.62c38.72,97.17 67.89,203.88 87.3,319.71 19.62,117 29.49,242.91 29.49,377.21 0,130.05 -11.56,252.78 -34.47,367.45 -23.02,115.2 -58.24,223.61 -105.33,324.59 -44.98,97.48 -98.54,188.6 -159.54,273.04 -61.21,84.65 -129.52,161.34 -204.2,229.44 -75,68.31 -155.08,128.35 -239.94,179.59 -84.44,50.92 -174.81,93.77 -270.49,128.35 -95.04,34.16 -190.41,59.83 -285.66,76.59 -96.64,16.97 -194.44,25.56 -292.66,25.56 -232.94,0 -454.54,-48.58 -664.04,-145.64 -212.15,-98.23 -389.83,-247.79 -532.18,-448.07 -34.26,-48.26 -23.02,-115.3 25.25,-149.57l71.81 -53.78c46.67,-34.9 112.65,-26.09 148.61,19.41zm2740.69 629.67c-16.55,-105.02 -22.38,-204.41 -17.61,-297.54 5.09,-98.23 22.28,-190.19 50.92,-275.16 28,-83.06 63.01,-161.45 104.7,-234.22 41.69,-72.77 90.8,-141.51 147.23,-205.79 54.52,-62.16 114.24,-121.56 178.84,-178.1 64.81,-56.64 134.29,-110.21 208.02,-160.39 68.63,-46.67 142.04,-95.15 220,-145.01 75,-47.84 151.37,-95.15 228.91,-141.72 153.28,-91.97 306.67,-187.01 459.52,-284.81 146.6,-93.77 277.71,-200.48 393.01,-319.71 57.18,-59.19 109.36,-122.31 155.93,-188.82 46.67,-66.72 89.21,-138.75 127.08,-215.55 36.28,-73.62 64.71,-154.02 84.75,-240.58 20.58,-88.68 32.88,-184.15 36.7,-285.56 3.71,-137.26 -5.52,-261.48 -27.58,-372.86 -21.32,-108.41 -55.16,-203.88 -100.67,-285.88 -45.72,-82.42 -101.3,-153.7 -166.43,-213.32 -65.02,-59.51 -140.66,-108.83 -226.58,-147.23 -62.59,-27.26 -129.09,-48.16 -199.11,-61.95 -70.86,-13.9 -146.39,-21 -225.94,-21 -54.52,0 -108.52,3.18 -161.77,9.12 -56.43,6.36 -111.8,15.91 -165.8,27.79 -54.63,12.3 -108.94,27.69 -162.4,45.82 -52.3,17.71 -102.89,38.19 -151.05,60.78 -48.9,23.02 -94.73,48.05 -136.73,74.89 -41.9,26.73 -82.1,56.43 -119.97,88.57 -72.34,61.42 -130.16,130.16 -173.33,205.58 -29.38,51.45 -95.15,69.27 -146.6,39.88l-80.83 -40.63c-52.83,-26.41 -74.25,-90.91 -47.84,-143.73l5.94 -10.4c73.09,-113.18 159.33,-212.47 258.08,-297.33 98.44,-84.33 209.5,-154.66 332.97,-210.14 242.07,-109.26 496.12,-163.89 761.63,-163.89 93.98,0 188.92,7.53 284.39,22.49 94.62,14.85 187.54,37.02 278.24,66.09 91.76,29.38 179.8,66.83 263.28,111.59 84.12,45.08 163.04,97.38 236.34,156.46 148.72,119.76 269.96,268.69 363.21,446.48 47.73,90.38 83.91,188.39 108.41,293.41 24.08,103 37.34,214.59 39.46,333.82 2.23,118.49 -5.73,229.12 -23.55,331.28 -18.35,104.49 -47.42,202.18 -86.88,292.35 -38.08,87.41 -83.38,170.36 -135.14,247.9 -51.66,77.97 -110.43,150.63 -175.34,217.88 -64.71,66.83 -133.02,128.78 -205.36,186.06 -71.5,56.75 -149.25,110.43 -232.31,160.71 -80.51,48.69 -161.24,95.26 -241.96,139.38 -81.25,44.87 -164.74,88.26 -249.6,130.16l-492.83 243.34c-77.22,38.08 -152.01,78.39 -223.93,120.4 -73.19,42.75 -139.91,85.18 -199.74,126.87 -59.4,41.48 -114.77,86.56 -165.37,134.82 -49.86,47.52 -94.62,97.48 -133.66,149.67 -36.38,48.58 -65.45,102.15 -86.45,160.18 -8.7,23.97 -16.02,48.8 -22.06,74.57l2511.67 0c59.4,0 107.56,48.16 107.56,107.56l0 326.5c0,59.4 -48.16,107.56 -107.56,107.56l-2747.59 0c-56.43,0 -102.68,-43.39 -107.24,-98.65z"/>
    <g>
     <path class="fil1" d="M8753.1 40019.83c31.82,34.69 118.38,197.3 156.67,246.2l472.46 475.54c236.23,234.75 410.41,406.27 646.43,641.55l7483.36 7456.53c315.58,314.62 986.09,911.62 1228.05,1221.26l35.85 -5513.95 19338.98 3.39c-353.23,-509.59 -1322.67,-1366.26 -1781.23,-1824.94l-7064.26 -7014.19c-145.11,-55.69 -2700.81,-63.75 -5262.76,-59.19 -2619.98,-297.33 -4747.55,-2281.49 -5262.23,-4831.78l0 -674.54c-586.92,317.8 -9297.27,9409.39 -9991.33,9874.11z"/>
     <path class="fil1" d="M41340.58 45671.25l9994.83 -9983.48 -5514.16 -45.61 -14.53 -19357.33c-457.93,313.67 -1360.64,1320.54 -1823.03,1781.66 -866.54,864.31 -6930.07,6839.27 -7006.23,7073.59l-30.23 10528.39 11.99 -4175.91c-697.03,2180.19 -2587.52,3839.86 -4893.62,4201.47l-655.02 3.5 9930.01 9973.72z"/>
     <path class="fil1" d="M4356.13 17122.3l5513.42 34.69 18.88 19355.32c418.79,-294.15 8797.01,-8764.34 8826.08,-8853.76l16.12 -5667.44c482.22,-2547.74 2571.29,-4545.05 5163.79,-4888.84l386.54 -2.02 -9930.86 -9973.61 -9993.98 9995.68zm14388.29 7.21l5150 -27.26 0 0 -5150 27.26z"/>
     <path class="fil1" d="M36944.04 8255.81l-19361.36 0.11 8841.14 8829.58c147.23,56.54 2948.18,64.07 5629.68,58.87l0.11 0c2466.91,442.34 4428.79,2389.26 4893.62,4848.54l0 637.31 9965.44 -9878.14c-155.3,-336.69 -8952.73,-9078.86 -9945.61,-10030.68l-23.02 5534.42z"/>
    </g>
   </g>
  </g>
 </g>
</svg>
