<?xml version="1.0" encoding="UTF-8"?>
<!DOCTYPE svg PUBLIC "-//W3C//DTD SVG 1.1//EN" "http://www.w3.org/Graphics/SVG/1.1/DTD/svg11.dtd">
<!-- Creator: CorelDRAW 2019 (64-Bit) -->
<svg xmlns="http://www.w3.org/2000/svg" xml:space="preserve" width="52.5015mm" height="49.7589mm" version="1.1" style="shape-rendering:geometricPrecision; text-rendering:geometricPrecision; image-rendering:optimizeQuality; fill-rule:evenodd; clip-rule:evenodd"
viewBox="0 0 46010.67 43607.15"
 xmlns:xlink="http://www.w3.org/1999/xlink">
 <defs>
  <style type="text/css">
   <![CDATA[
    .fil1 {fill:#FEFEFE}
    .fil0 {fill:#FECC00}
   ]]>
  </style>
 </defs>
 <g id="Layer_x0020_1">
  <metadata id="CorelCorpID_0Corel-Layer"/>
  <g id="_2178123678608">
   <rect class="fil0" x="0.03" y="-0.01" width="46010.65" height="43607.15" rx="13164.35" ry="13164.35"/>
   <g>
    <path class="fil1" d="M22673.15 24091.73l-0.26 -2826.73c-33.74,-325.66 -466.32,-306.99 -495.5,-18.23l-1.31 2827.6c18.05,311.29 450.19,314.09 497.08,17.35zm-2564.34 -2703.51l405.5 2729.63c67.74,278.77 553.34,292.09 476.74,-174.57 -98.33,-599.7 -185.79,-1210.35 -271.15,-1809.44l-136.8 -912.65c-70.81,-292.09 -560.35,-276.84 -474.29,167.04zm4642.13 -71.07c52.76,-292.27 -427.05,-459.74 -498.83,-40.84l-273.25 1825.21c-41.28,287.01 -115.07,639.4 -136.01,918.87 -25.24,336.61 434.42,433.98 497.87,29.62 134.43,-856.21 262.3,-1913.46 410.23,-2732.87zm4717.84 -2739.09c0,293.93 -170.98,393.05 -444.49,391.47 -254.85,-1.49 -510.05,-0.18 -764.89,-0.18 -220.93,0 -542.65,-35.93 -717.57,46.97 -195.17,92.54 -216.81,248.8 -287.45,477.18 -242.49,784.09 -468.33,1580.18 -706.88,2371.45 -241.09,799.42 -480.6,1578.43 -708.28,2368.39l-528.1 1765.88c-76.68,244.59 -90.97,350.64 -272.99,508.47 -171.77,149.07 -302.96,167.47 -602.77,167.04l-4588.75 0c-129.61,0 -262.91,2.89 -392.09,-0.7 -409,-11.13 -459.66,-491.82 -203.49,-652.63 162.74,-102.1 472.89,-62.22 702.32,-62.22l4624.34 0c26.29,-149.25 168.7,-541.16 213.4,-729.23 -1416.91,0 -2833.83,0 -4250.74,0 -544.23,0 -882.68,62.13 -1148.31,-275 -152.75,-193.94 -293.41,-762.27 -370.09,-1034.55 -210.42,-746.32 -443.18,-1446.97 -655.26,-2189.69 -76.07,-266.5 -316.37,-943.24 -316.37,-1178.37 0,-150.12 103.85,-287.36 187.28,-347.13 158.18,-113.23 220.32,-97.63 453,-97.54l7630.1 0c57.23,-152.49 105.87,-339.33 153.28,-504.79 49.95,-174.4 99.47,-332.14 151.96,-505.4 101.48,-334.77 300.59,-579.81 607.24,-727.47 331.27,-159.59 776.29,-112.09 1221.83,-112.09 216.64,0 443.62,-6.66 658.85,-0.61 176.5,4.91 354.93,150.21 354.93,320.75z"/>
    <path class="fil1" d="M25537.39 28022.33c-161.87,1135.77 -1885.24,967.95 -1760.62,-231.45 43.73,-420.66 467.72,-831.67 992.14,-759.81 492.61,67.48 833.25,537.21 768.49,991.26z"/>
    <path class="fil1" d="M21090.69 28022.33c-153.98,1128.68 -1884.37,973.91 -1760.19,-231.27 43.12,-417.85 467.54,-833.25 991.7,-759.9 489.71,68.62 831.94,525.56 768.49,991.17z"/>
   </g>
   <g>
    <path class="fil1" d="M17917.62 18923.08c52.32,66.34 107.53,124.09 165.46,172.56 56.88,47.67 117.17,87.2 180.36,117.96 126.81,61.78 254.76,92.72 383.59,92.72 55.65,0 109.72,-5.52 161.43,-16.39 51.88,-10.87 103.32,-27.52 153.98,-49.78 50.3,-22.08 97.63,-49.6 141.45,-82.2 44.52,-33.13 86.41,-71.95 125.32,-116.21 39.44,-45.13 75.1,-95.35 106.74,-150.56 32.43,-56.53 60.91,-118.49 85.27,-185.26 24.45,-67.13 42.85,-139.17 55.04,-215.85 12.18,-76.77 18.32,-160.29 18.32,-250.2 0,-84.92 -5.7,-163.36 -16.91,-234.87 -11.39,-70.9 -28.48,-137.85 -51.36,-200.16 -23.14,-63.01 -49.43,-119.62 -78.87,-169.66 -29.45,-50.13 -62.49,-95.09 -98.68,-134.26 -36.46,-39.44 -75.81,-74.4 -117.78,-104.64 -41.19,-29.53 -85.53,-54.77 -132.59,-75.19 -46.71,-20.33 -94.65,-35.76 -143.2,-46.01l-3.07 -0.7c-46.54,-9.55 -94.65,-14.37 -143.99,-14.37 -70.02,0 -138.73,9.64 -206.03,28.92 -68.18,19.54 -135.66,49.08 -201.83,88.34 -65.2,38.56 -125.67,88.25 -180.88,148.46 -56.44,61.61 -107.53,134 -153.01,217.08 -19.1,35.14 -58.8,52.14 -96.14,44.26l-71.25 -15.16c-44.26,-9.29 -73.7,-50.39 -69.93,-94.38l86.41 -1833.89c2.19,-47.41 41.54,-84.39 88.51,-84.39l1822.06 -0.26c49.08,0 88.86,39.79 88.86,88.86l-5.52 306.82c-0.7,48.38 -40.31,87.02 -88.51,87.11l-1665.71 0.35 -41.8 1026.32 15.51 -13.85c37.16,-32.51 76.24,-62.4 116.91,-89.39 41.45,-27.43 84.57,-52.23 129,-73.88l7.01 -3.07c43.38,-20.95 87.2,-39.35 130.75,-54.86 46.89,-16.65 95.52,-31.02 145.65,-42.85 49.78,-11.74 100.17,-20.68 150.74,-26.55 51,-5.96 101.66,-8.94 151.87,-8.94 70.28,0 141.01,6.05 211.73,17.97 70.37,11.74 140.13,29.62 208.66,53.02 70.9,24.28 137.94,55.74 200.69,94.3 62.13,38.21 120.94,83.96 175.8,137.06 54.86,53.02 104.38,113.49 148.37,180.97 43.56,67.04 81.77,141.01 114.19,221.11l1.75 4.64c31.99,80.28 56.09,168.44 72.13,264.14 16.21,96.66 24.36,200.69 24.36,311.64 0,107.44 -9.55,208.84 -28.48,303.57 -19.02,95.17 -48.11,184.74 -87.02,268.17 -37.16,80.54 -81.41,155.82 -131.81,225.58 -50.57,69.93 -107,133.3 -168.7,189.56 -61.96,56.44 -128.13,106.04 -198.23,148.37 -69.76,42.07 -144.43,77.47 -223.47,106.04 -78.52,28.22 -157.31,49.43 -236.01,63.27 -79.84,14.02 -160.64,21.12 -241.79,21.12 -192.45,0 -375.52,-40.14 -548.61,-120.33 -175.27,-81.15 -322.07,-204.72 -439.67,-370.18 -28.31,-39.87 -19.02,-95.26 20.86,-123.57l59.33 -44.43c38.56,-28.83 93.07,-21.56 122.78,16.04zm2264.27 520.21c-13.67,-86.76 -18.49,-168.88 -14.55,-245.82 4.21,-81.15 18.4,-157.13 42.07,-227.33 23.14,-68.62 52.06,-133.38 86.5,-193.5 34.44,-60.12 75.02,-116.91 121.64,-170.02 45.05,-51.36 94.38,-100.43 147.76,-147.14 53.55,-46.8 110.95,-91.05 171.86,-132.51 56.7,-38.56 117.35,-78.61 181.76,-119.8 61.96,-39.52 125.06,-78.61 189.12,-117.08 126.64,-75.98 253.36,-154.5 379.64,-235.31 121.11,-77.47 229.43,-165.63 324.69,-264.14 47.24,-48.9 90.35,-101.05 128.83,-155.99 38.56,-55.12 73.7,-114.63 104.99,-178.08 29.97,-60.82 53.46,-127.25 70.02,-198.76 17,-73.26 27.17,-152.14 30.32,-235.92 3.07,-113.4 -4.56,-216.02 -22.79,-308.04 -17.62,-89.56 -45.57,-168.44 -83.17,-236.18 -37.77,-68.09 -83.69,-126.99 -137.5,-176.24 -53.72,-49.16 -116.21,-89.92 -187.19,-121.64 -51.71,-22.52 -106.65,-39.79 -164.49,-51.18 -58.54,-11.48 -120.94,-17.35 -186.67,-17.35 -45.05,0 -89.65,2.63 -133.65,7.54 -46.62,5.26 -92.37,13.15 -136.98,22.96 -45.13,10.17 -90,22.87 -134.17,37.86 -43.2,14.64 -85.01,31.55 -124.79,50.22 -40.4,19.02 -78.26,39.7 -112.96,61.87 -34.62,22.08 -67.83,46.62 -99.12,73.18 -59.77,50.74 -107.53,107.53 -143.2,169.84 -24.28,42.5 -78.61,57.23 -121.11,32.95l-66.78 -33.56c-43.64,-21.82 -61.35,-75.1 -39.52,-118.75l4.91 -8.59c60.38,-93.51 131.63,-175.54 213.22,-245.65 81.33,-69.67 173.08,-127.77 275.09,-173.61 199.99,-90.27 409.88,-135.4 629.23,-135.4 77.65,0 156.08,6.22 234.95,18.58 78.17,12.27 154.94,30.59 229.87,54.6 75.81,24.28 148.54,55.21 217.51,92.19 69.5,37.25 134.7,80.45 195.25,129.26 122.87,98.94 223.04,221.98 300.07,368.86 39.44,74.67 69.32,155.64 89.56,242.4 19.89,85.1 30.85,177.29 32.6,275.79 1.84,97.89 -4.73,189.3 -19.46,273.69 -15.16,86.32 -39.17,167.04 -71.77,241.53 -31.46,72.21 -68.88,140.74 -111.65,204.81 -42.68,64.41 -91.23,124.44 -144.86,180.01 -53.46,55.21 -109.9,106.39 -169.66,153.72 -59.07,46.89 -123.31,91.23 -191.92,132.77 -66.52,40.23 -133.21,78.7 -199.9,115.15 -67.13,37.07 -136.1,72.91 -206.21,107.53l-407.16 201.04c-63.8,31.46 -125.58,64.76 -185,99.47 -60.47,35.32 -115.59,70.37 -165.02,104.81 -49.08,34.27 -94.82,71.51 -136.63,111.39 -41.19,39.26 -78.17,80.54 -110.42,123.66 -30.06,40.14 -54.07,84.39 -71.42,132.33 -7.19,19.81 -13.23,40.31 -18.23,61.61l2075.07 0c49.08,0 88.86,39.79 88.86,88.86l0 269.75c0,49.08 -39.79,88.86 -88.86,88.86l-2269.97 0c-46.62,0 -84.83,-35.84 -88.6,-81.5z"/>
    <g>
     <path class="fil1" d="M7231.53 33063.11c26.29,28.66 97.8,163 129.44,203.41l390.33 392.88c195.17,193.94 339.07,335.65 534.06,530.03l6182.52 6160.35c260.72,259.93 814.67,753.15 1014.57,1008.96l29.62 -4555.45 15977.25 2.8c-291.83,-421.01 -1092.74,-1128.76 -1471.6,-1507.7l-5836.27 -5794.9c-119.89,-46.01 -2231.32,-52.67 -4347.93,-48.9 -2164.54,-245.65 -3922.28,-1884.89 -4347.49,-3991.86l0 -557.28c-484.89,262.56 -7681.11,7773.74 -8254.52,8157.68z"/>
     <path class="fil1" d="M34154.28 37732.14l8257.41 -8248.03 -4555.63 -37.68 -12.01 -15992.42c-378.33,259.14 -1124.12,1090.99 -1506.13,1471.95 -715.91,714.07 -5725.4,5650.39 -5788.33,5843.98l-24.98 8698.22 9.9 -3450c-575.86,1801.2 -2137.73,3172.37 -4042.95,3471.12l-541.16 2.89 8203.86 8239.97z"/>
     <path class="fil1" d="M3598.9 14145.91l4555.01 28.66 15.6 15990.75c345.99,-243.02 7267.81,-7240.82 7291.83,-7314.7l13.32 -4682.26c398.4,-2104.86 2124.32,-3754.98 4266.16,-4039.01l319.35 -1.67 -8204.56 -8239.88 -8256.71 8258.11zm11887.15 5.96l4254.77 -22.52 0 0 -4254.77 22.52z"/>
     <path class="fil1" d="M30522 6820.69l-15995.75 0.09 7304.27 7294.72c121.64,46.71 2435.69,52.93 4651.06,48.64l0.09 0c2038.08,365.45 3658.93,1973.93 4042.95,4005.71l0 526.52 8233.13 -8161.01c-128.3,-278.16 -7396.46,-7500.66 -8216.75,-8287.03l-19.02 4572.37z"/>
    </g>
   </g>
  </g>
 </g>
</svg>
