<?xml version="1.0" encoding="UTF-8"?>
<!DOCTYPE svg PUBLIC "-//W3C//DTD SVG 1.1//EN" "http://www.w3.org/Graphics/SVG/1.1/DTD/svg11.dtd">
<!-- Creator: CorelDRAW 2019 (64-Bit) -->
<svg xmlns="http://www.w3.org/2000/svg" xml:space="preserve" width="52.5015mm" height="49.7589mm" version="1.1" style="shape-rendering:geometricPrecision; text-rendering:geometricPrecision; image-rendering:optimizeQuality; fill-rule:evenodd; clip-rule:evenodd"
viewBox="0 0 2386.17 2261.52"
 xmlns:xlink="http://www.w3.org/1999/xlink">
 <defs>
  <style type="text/css">
   <![CDATA[
    .fil1 {fill:#FEFEFE}
    .fil0 {fill:#92C02C}
   ]]>
  </style>
 </defs>
 <g id="Layer_x0020_1">
  <metadata id="CorelCorpID_0Corel-Layer"/>
  <rect class="fil0" x="0" y="-0" width="2386.16" height="2261.52" rx="682.72" ry="682.72"/>
  <g id="_2180841380112">
   <path class="fil1" d="M1493.87 927.57c-41.65,5.72 -87.99,16.42 -130.97,23.13 -8.38,1.31 -10.64,0.79 -16.2,5.48l20.91 24.88c0.08,0.1 3.1,4.24 3.15,4.31 2.52,3.64 0.55,0.07 3.03,4.72l-165.65 133.07c-7.85,6.35 -14.78,12.98 -24.03,17.14 -14.67,-17.9 -48.19,-49.94 -57.11,-66.67 -13.89,3.92 -153.08,110.07 -177.62,127.78l-56.88 43.22 0.83 81.83c8.55,-4.69 18.99,-13.29 27.92,-19.83 9.06,-6.63 17.08,-12.68 27.74,-20.71 18.44,-13.89 35.27,-25.7 54.44,-40.1l110.39 -80.54c6.54,5.93 10.72,9.31 16.39,16.89l46.64 51.65c6.33,-4.34 9.09,-5.6 16.23,-11.71 4.42,-3.78 9.54,-8.11 14.6,-12.06 10.74,-8.37 19.84,-15.51 29.79,-23.56l179.37 -142.25c12.43,11.55 18.25,24.42 27.75,30.5l49.3 -147.17z"/>
   <path class="fil1" d="M1407.06 1119.14c-41.02,31.01 -34.53,27.01 -34.44,57.63 0.19,68.43 -3.92,218.83 0.52,268.85l96.87 -0.34 0.17 -298.33 -63.12 -27.8z"/>
   <path class="fil1" d="M1212.97 1445.63l96.99 -0.39 0.05 -247.03c-20.86,12.74 -85.67,69.71 -97.43,74.8l0.39 172.62z"/>
   <path class="fil1" d="M1113.8 1233.53c-65.68,47.35 -61.32,33.77 -61.25,76.57 0.06,43.6 -2.12,92.59 0.35,135.53l96.8 -0.35c2.32,-46.4 0.12,-107.36 0.37,-157.12 0.14,-26.44 -8.31,-21.69 -22.45,-40.34 -6.01,-7.93 -6.63,-7.99 -13.82,-14.28z"/>
   <path class="fil1" d="M989.48 1325.39c-8.77,4.31 -23.17,16.2 -31.56,22.7l-62.61 46.64c-4.04,5.73 -2.68,2.82 -3.03,12.1l0.7 38.8 96.92 -0.29 -0.42 -119.94z"/>
  </g>
  <g id="_2180841383600">
   <path class="fil1" d="M929.23 981.37c2.71,3.44 5.58,6.44 8.58,8.95 2.95,2.47 6.08,4.52 9.35,6.12 6.58,3.2 13.21,4.81 19.89,4.81 2.89,0 5.69,-0.29 8.37,-0.85 2.69,-0.56 5.36,-1.43 7.99,-2.58 2.61,-1.15 5.06,-2.57 7.34,-4.26 2.31,-1.72 4.48,-3.73 6.5,-6.03 2.05,-2.34 3.9,-4.94 5.54,-7.81 1.68,-2.93 3.16,-6.14 4.42,-9.61 1.27,-3.48 2.22,-7.22 2.85,-11.19 0.63,-3.98 0.95,-8.31 0.95,-12.98 0,-4.4 -0.3,-8.47 -0.88,-12.18 -0.59,-3.68 -1.48,-7.15 -2.66,-10.38 -1.2,-3.27 -2.56,-6.2 -4.09,-8.8 -1.53,-2.6 -3.24,-4.93 -5.12,-6.96 -1.89,-2.05 -3.93,-3.86 -6.11,-5.43 -2.14,-1.53 -4.44,-2.84 -6.88,-3.9 -2.42,-1.05 -4.91,-1.85 -7.43,-2.39l-0.16 -0.04c-2.41,-0.5 -4.91,-0.75 -7.47,-0.75 -3.63,0 -7.19,0.5 -10.69,1.5 -3.54,1.01 -7.04,2.55 -10.47,4.58 -3.38,2 -6.52,4.58 -9.38,7.7 -2.93,3.2 -5.58,6.95 -7.94,11.26 -0.99,1.82 -3.05,2.7 -4.99,2.3l-3.7 -0.79c-2.3,-0.48 -3.82,-2.61 -3.63,-4.89l4.48 -95.11c0.11,-2.46 2.15,-4.38 4.59,-4.38l94.49 -0.01c2.55,0 4.61,2.06 4.61,4.61l-0.29 15.91c-0.04,2.51 -2.09,4.51 -4.59,4.52l-86.39 0.02 -2.17 53.23 0.8 -0.72c1.93,-1.69 3.95,-3.24 6.06,-4.64 2.15,-1.42 4.39,-2.71 6.69,-3.83l0.36 -0.16c2.25,-1.09 4.52,-2.04 6.78,-2.85 2.43,-0.86 4.95,-1.61 7.55,-2.22 2.58,-0.61 5.19,-1.07 7.82,-1.38 2.65,-0.31 5.27,-0.46 7.88,-0.46 3.65,0 7.31,0.31 10.98,0.93 3.65,0.61 7.27,1.54 10.82,2.75 3.68,1.26 7.15,2.89 10.41,4.89 3.22,1.98 6.27,4.35 9.12,7.11 2.85,2.75 5.41,5.89 7.69,9.39 2.26,3.48 4.24,7.31 5.92,11.47l0.09 0.24c1.66,4.16 2.91,8.74 3.74,13.7 0.84,5.01 1.26,10.41 1.26,16.16 0,5.57 -0.5,10.83 -1.48,15.74 -0.99,4.94 -2.5,9.58 -4.51,13.91 -1.93,4.18 -4.22,8.08 -6.84,11.7 -2.62,3.63 -5.55,6.91 -8.75,9.83 -3.21,2.93 -6.64,5.5 -10.28,7.69 -3.62,2.18 -7.49,4.02 -11.59,5.5 -4.07,1.46 -8.16,2.56 -12.24,3.28 -4.14,0.73 -8.33,1.1 -12.54,1.1 -9.98,0 -19.48,-2.08 -28.45,-6.24 -9.09,-4.21 -16.7,-10.62 -22.8,-19.2 -1.47,-2.07 -0.99,-4.94 1.08,-6.41l3.08 -2.3c2,-1.5 4.83,-1.12 6.37,0.83zm117.43 26.98c-0.71,-4.5 -0.96,-8.76 -0.75,-12.75 0.22,-4.21 0.95,-8.15 2.18,-11.79 1.2,-3.56 2.7,-6.92 4.49,-10.04 1.79,-3.12 3.89,-6.06 6.31,-8.82 2.34,-2.66 4.89,-5.21 7.66,-7.63 2.78,-2.43 5.75,-4.72 8.91,-6.87 2.94,-2 6.09,-4.08 9.43,-6.21 3.21,-2.05 6.49,-4.08 9.81,-6.07 6.57,-3.94 13.14,-8.01 19.69,-12.2 6.28,-4.02 11.9,-8.59 16.84,-13.7 2.45,-2.54 4.69,-5.24 6.68,-8.09 2,-2.86 3.82,-5.94 5.44,-9.24 1.55,-3.15 2.77,-6.6 3.63,-10.31 0.88,-3.8 1.41,-7.89 1.57,-12.23 0.16,-5.88 -0.24,-11.2 -1.18,-15.98 -0.91,-4.64 -2.36,-8.74 -4.31,-12.25 -1.96,-3.53 -4.34,-6.59 -7.13,-9.14 -2.79,-2.55 -6.03,-4.66 -9.71,-6.31 -2.68,-1.17 -5.53,-2.06 -8.53,-2.65 -3.04,-0.6 -6.27,-0.9 -9.68,-0.9 -2.34,0 -4.65,0.14 -6.93,0.39 -2.42,0.27 -4.79,0.68 -7.1,1.19 -2.34,0.53 -4.67,1.19 -6.96,1.96 -2.24,0.76 -4.41,1.64 -6.47,2.6 -2.1,0.99 -4.06,2.06 -5.86,3.21 -1.8,1.15 -3.52,2.42 -5.14,3.8 -3.1,2.63 -5.58,5.58 -7.43,8.81 -1.26,2.2 -4.08,2.97 -6.28,1.71l-3.46 -1.74c-2.26,-1.13 -3.18,-3.9 -2.05,-6.16l0.25 -0.45c3.13,-4.85 6.83,-9.1 11.06,-12.74 4.22,-3.61 8.98,-6.63 14.27,-9 10.37,-4.68 21.26,-7.02 32.63,-7.02 4.03,0 8.09,0.32 12.19,0.96 4.05,0.64 8.04,1.59 11.92,2.83 3.93,1.26 7.7,2.86 11.28,4.78 3.6,1.93 6.99,4.17 10.13,6.7 6.37,5.13 11.57,11.51 15.56,19.13 2.05,3.87 3.6,8.07 4.64,12.57 1.03,4.41 1.6,9.19 1.69,14.3 0.1,5.08 -0.25,9.82 -1.01,14.19 -0.79,4.48 -2.03,8.66 -3.72,12.53 -1.63,3.75 -3.57,7.3 -5.79,10.62 -2.21,3.34 -4.73,6.45 -7.51,9.34 -2.77,2.86 -5.7,5.52 -8.8,7.97 -3.06,2.43 -6.39,4.73 -9.95,6.89 -3.45,2.09 -6.91,4.08 -10.37,5.97 -3.48,1.92 -7.06,3.78 -10.69,5.58l-21.12 10.43c-3.31,1.63 -6.51,3.36 -9.59,5.16 -3.14,1.83 -5.99,3.65 -8.56,5.44 -2.55,1.78 -4.92,3.71 -7.09,5.78 -2.14,2.04 -4.05,4.18 -5.73,6.41 -1.56,2.08 -2.8,4.38 -3.7,6.86 -0.37,1.03 -0.69,2.09 -0.95,3.2l107.62 0c2.55,0 4.61,2.06 4.61,4.61l0 13.99c0,2.55 -2.06,4.61 -4.61,4.61l-117.72 0c-2.42,0 -4.4,-1.86 -4.59,-4.23z"/>
   <g>
    <path class="fil1" d="M375.04 1714.69c1.36,1.49 5.07,8.45 6.71,10.55l20.24 20.37c10.12,10.06 17.58,17.41 27.7,27.49l320.63 319.48c13.52,13.48 42.25,39.06 52.62,52.33l1.54 -236.25 828.6 0.15c-15.13,-21.83 -56.67,-58.54 -76.32,-78.19l-302.68 -300.53c-6.22,-2.39 -115.72,-2.73 -225.49,-2.54 -112.26,-12.74 -203.41,-97.75 -225.47,-207.02l0 -28.9c-25.15,13.62 -398.35,403.15 -428.09,423.07z"/>
    <path class="fil1" d="M1771.28 1956.83l428.24 -427.75 -236.26 -1.95 -0.62 -829.38c-19.62,13.44 -58.3,56.58 -78.11,76.34 -37.13,37.03 -296.93,293.04 -300.19,303.08l-1.3 451.1 0.51 -178.92c-29.86,93.41 -110.86,164.52 -209.67,180.02l-28.07 0.15 425.46 427.33z"/>
    <path class="fil1" d="M186.65 733.62l236.23 1.49 0.81 829.3c17.94,-12.6 376.92,-375.52 378.16,-379.35l0.69 -242.83c20.66,-109.16 110.17,-194.74 221.25,-209.47l16.56 -0.09 -425.5 -427.33 -428.2 428.27zm616.48 0.31l220.66 -1.17 0 0 -220.66 1.17z"/>
    <path class="fil1" d="M1582.91 353.73l-829.56 0 378.81 378.31c6.31,2.42 126.32,2.75 241.21,2.52l0 0c105.7,18.95 189.76,102.37 209.67,207.74l0 27.31 426.98 -423.24c-6.65,-14.43 -383.59,-388.99 -426.13,-429.77l-0.99 237.13z"/>
   </g>
  </g>
 </g>
</svg>
