<?xml version="1.0" encoding="UTF-8"?>
<!DOCTYPE svg PUBLIC "-//W3C//DTD SVG 1.1//EN" "http://www.w3.org/Graphics/SVG/1.1/DTD/svg11.dtd">
<!-- Creator: CorelDRAW 2019 (64-Bit) -->
<svg xmlns="http://www.w3.org/2000/svg" xml:space="preserve" width="52.5014mm" height="49.7589mm" version="1.1" style="shape-rendering:geometricPrecision; text-rendering:geometricPrecision; image-rendering:optimizeQuality; fill-rule:evenodd; clip-rule:evenodd"
viewBox="0 0 2463.62 2334.92"
 xmlns:xlink="http://www.w3.org/1999/xlink">
 <defs>
  <style type="text/css">
   <![CDATA[
    .fil1 {fill:#FEFEFE}
    .fil0 {fill:#2999D5}
   ]]>
  </style>
 </defs>
 <g id="Layer_x0020_1">
  <metadata id="CorelCorpID_0Corel-Layer"/>
  <rect class="fil0" x="-0" y="0" width="2463.62" height="2334.93" rx="704.88" ry="704.88"/>
  <g id="_2180981975328">
   <g>
    <path class="fil1" d="M1145.62 1462.22l98.73 0.1c0.61,-22.04 -0.15,-45.14 1.21,-66.32 0.96,-14.91 10.28,-36.89 13.16,-52.63 13.56,12.41 14.53,35.73 14.18,52.56 -0.46,22.09 -1.5,44.54 -1.48,66.58l161.84 -0.12c0.5,-35.55 -9.08,-92.56 11.13,-118.37 3.75,5.11 14.02,42.37 14.85,51.84 1.71,19.47 0.75,45.07 0.99,65.2 12.37,3.81 80.2,1.09 98.95,1.44 0.95,-44.42 1.04,-75.56 -9.9,-115.41 -9.05,-32.95 -17.57,-64.46 -27.32,-97.32 -12.26,-41.29 -11.66,-58.07 -57.47,-66.93 -13.6,-2.63 -40.01,-9.22 -52.76,-8.09 -19.95,1.77 -36.34,5.42 -58.67,5.51 -66.58,0.28 -32.36,-13.43 -109.73,1.96 -47.07,9.37 -48.18,21.9 -60.41,66.53 -26.64,97.3 -38.25,107.72 -37.3,213.47z"/>
    <path class="fil1" d="M904.06 1462.5l82.26 -0.12c1.04,-32.66 3.74,-37.47 11.26,-66.47 15.73,12.36 10.99,44.38 11.05,66.27l103.57 0.18c1.4,-36.73 -2.04,-77.21 7.79,-110.58 7.28,-24.71 22.4,-69.96 25.66,-93.49 -33.71,-5.38 -69.51,3.41 -104.99,-0.5 -25.54,-2.81 -73.23,0.8 -90.27,19.87 -11.18,12.5 -23.01,63.82 -28.72,85.52 -10.34,39.3 -18.07,53.76 -17.61,99.33z"/>
    <path class="fil1" d="M1333.67 978.75c-51.85,11.98 -78.04,60.32 -66.57,106.4 10.08,40.52 54.06,77.24 106.7,63.78 110.78,-28.34 70.99,-195.86 -40.13,-170.17z"/>
    <path class="fil1" d="M1062.89 1092.19c-96.11,17.97 -69.58,159.77 25.84,142.95 34.84,-6.14 65.99,-40.82 57.86,-85.24 -6.44,-35.21 -41.84,-65.53 -83.7,-57.7z"/>
   </g>
   <path class="fil1" d="M959.39 1013.23c2.8,3.55 5.76,6.64 8.86,9.24 3.05,2.55 6.27,4.67 9.66,6.32 6.79,3.31 13.64,4.96 20.54,4.96 2.98,0 5.87,-0.3 8.64,-0.88 2.78,-0.58 5.53,-1.47 8.24,-2.67 2.69,-1.18 5.23,-2.66 7.57,-4.4 2.38,-1.77 4.63,-3.85 6.71,-6.22 2.11,-2.42 4.02,-5.11 5.72,-8.06 1.74,-3.03 3.26,-6.34 4.57,-9.92 1.31,-3.59 2.29,-7.45 2.95,-11.56 0.65,-4.11 0.98,-8.58 0.98,-13.4 0,-4.55 -0.31,-8.75 -0.91,-12.58 -0.61,-3.8 -1.53,-7.38 -2.75,-10.72 -1.24,-3.37 -2.65,-6.41 -4.22,-9.08 -1.58,-2.68 -3.35,-5.09 -5.28,-7.19 -1.95,-2.11 -4.06,-3.98 -6.31,-5.6 -2.21,-1.58 -4.58,-2.93 -7.1,-4.03 -2.5,-1.09 -5.07,-1.91 -7.67,-2.46l-0.16 -0.04c-2.49,-0.51 -5.07,-0.77 -7.71,-0.77 -3.75,0 -7.43,0.52 -11.03,1.55 -3.65,1.05 -7.26,2.63 -10.81,4.73 -3.49,2.06 -6.73,4.73 -9.69,7.95 -3.02,3.3 -5.76,7.17 -8.19,11.62 -1.02,1.88 -3.15,2.79 -5.15,2.37l-3.81 -0.81c-2.37,-0.5 -3.95,-2.7 -3.74,-5.05l4.63 -98.19c0.12,-2.54 2.22,-4.52 4.74,-4.52l97.56 -0.01c2.63,0 4.76,2.13 4.76,4.76l-0.3 16.43c-0.04,2.59 -2.16,4.66 -4.74,4.66l-89.19 0.02 -2.24 54.95 0.83 -0.74c1.99,-1.74 4.08,-3.34 6.26,-4.79 2.22,-1.47 4.53,-2.8 6.91,-3.96l0.38 -0.16c2.32,-1.12 4.67,-2.11 7,-2.94 2.51,-0.89 5.11,-1.66 7.8,-2.29 2.67,-0.63 5.36,-1.11 8.07,-1.42 2.73,-0.32 5.44,-0.48 8.13,-0.48 3.76,0 7.55,0.32 11.34,0.96 3.77,0.63 7.5,1.59 11.17,2.84 3.8,1.3 7.39,2.98 10.75,5.05 3.33,2.05 6.48,4.5 9.41,7.34 2.94,2.84 5.59,6.08 7.94,9.69 2.33,3.59 4.38,7.55 6.11,11.84l0.09 0.25c1.71,4.3 3,9.02 3.86,14.14 0.87,5.18 1.3,10.75 1.3,16.69 0,5.75 -0.51,11.18 -1.53,16.25 -1.02,5.1 -2.58,9.89 -4.66,14.36 -1.99,4.31 -4.36,8.34 -7.06,12.08 -2.71,3.74 -5.73,7.14 -9.03,10.15 -3.32,3.02 -6.86,5.68 -10.61,7.94 -3.74,2.25 -7.73,4.15 -11.97,5.68 -4.2,1.51 -8.42,2.65 -12.64,3.39 -4.27,0.75 -8.6,1.13 -12.95,1.13 -10.3,0 -20.11,-2.15 -29.37,-6.44 -9.38,-4.35 -17.24,-10.96 -23.54,-19.82 -1.52,-2.14 -1.02,-5.1 1.12,-6.62l3.18 -2.38c2.06,-1.54 4.98,-1.15 6.57,0.86zm121.24 27.85c-0.73,-4.65 -0.99,-9.04 -0.78,-13.16 0.23,-4.35 0.99,-8.41 2.25,-12.17 1.24,-3.67 2.79,-7.14 4.63,-10.36 1.84,-3.22 4.02,-6.26 6.51,-9.1 2.41,-2.75 5.05,-5.38 7.91,-7.88 2.87,-2.51 5.94,-4.88 9.2,-7.1 3.04,-2.06 6.28,-4.21 9.73,-6.41 3.32,-2.12 6.7,-4.21 10.13,-6.27 6.78,-4.07 13.57,-8.27 20.33,-12.6 6.49,-4.15 12.28,-8.87 17.39,-14.14 2.53,-2.62 4.84,-5.41 6.9,-8.35 2.06,-2.95 3.95,-6.14 5.62,-9.54 1.6,-3.26 2.86,-6.81 3.75,-10.64 0.91,-3.92 1.45,-8.15 1.62,-12.63 0.16,-6.07 -0.24,-11.57 -1.22,-16.49 -0.94,-4.8 -2.44,-9.02 -4.45,-12.65 -2.02,-3.65 -4.48,-6.8 -7.36,-9.44 -2.88,-2.63 -6.22,-4.81 -10.02,-6.51 -2.77,-1.21 -5.71,-2.13 -8.81,-2.74 -3.13,-0.61 -6.48,-0.93 -9.99,-0.93 -2.41,0 -4.8,0.14 -7.16,0.4 -2.5,0.28 -4.95,0.7 -7.33,1.23 -2.42,0.54 -4.82,1.22 -7.18,2.03 -2.31,0.78 -4.55,1.69 -6.68,2.69 -2.16,1.02 -4.19,2.13 -6.05,3.31 -1.85,1.18 -3.63,2.5 -5.31,3.92 -3.2,2.72 -5.76,5.76 -7.67,9.09 -1.3,2.28 -4.21,3.06 -6.49,1.76l-3.58 -1.8c-2.34,-1.17 -3.28,-4.02 -2.12,-6.36l0.26 -0.46c3.23,-5.01 7.05,-9.4 11.42,-13.15 4.35,-3.73 9.27,-6.84 14.73,-9.3 10.71,-4.83 21.95,-7.25 33.69,-7.25 4.16,0 8.36,0.33 12.58,0.99 4.19,0.66 8.3,1.64 12.31,2.92 4.06,1.3 7.95,2.96 11.65,4.94 3.72,1.99 7.21,4.31 10.45,6.92 6.58,5.3 11.94,11.89 16.07,19.75 2.11,4 3.71,8.33 4.8,12.98 1.07,4.56 1.65,9.49 1.75,14.77 0.1,5.24 -0.25,10.14 -1.04,14.65 -0.81,4.62 -2.1,8.94 -3.84,12.93 -1.68,3.87 -3.69,7.54 -5.98,10.97 -2.29,3.45 -4.88,6.66 -7.76,9.64 -2.86,2.96 -5.88,5.7 -9.08,8.23 -3.16,2.51 -6.6,4.88 -10.28,7.11 -3.56,2.15 -7.13,4.21 -10.7,6.17 -3.59,1.98 -7.29,3.9 -11.04,5.76l-21.8 10.76c-3.42,1.68 -6.72,3.47 -9.91,5.33 -3.24,1.89 -6.19,3.77 -8.84,5.61 -2.63,1.83 -5.08,3.83 -7.32,5.96 -2.21,2.1 -4.19,4.31 -5.91,6.62 -1.61,2.15 -2.9,4.52 -3.82,7.09 -0.38,1.06 -0.71,2.16 -0.98,3.3l111.11 0c2.63,0 4.76,2.13 4.76,4.76l0 14.44c0,2.63 -2.13,4.76 -4.76,4.76l-121.54 0c-2.5,0 -4.54,-1.92 -4.74,-4.36z"/>
   <g>
    <path class="fil1" d="M387.21 1770.35c1.41,1.53 5.24,8.73 6.93,10.89l20.9 21.04c10.45,10.38 18.16,17.97 28.6,28.38l331.04 329.85c13.96,13.92 43.62,40.33 54.32,54.02l1.59 -243.92 855.49 0.15c-15.63,-22.54 -58.51,-60.44 -78.8,-80.73l-312.5 -310.29c-6.42,-2.46 -119.48,-2.82 -232.81,-2.62 -115.9,-13.15 -210.02,-100.93 -232.78,-213.74l0 -29.84c-25.96,14.06 -411.28,416.24 -441.98,436.8z"/>
    <path class="fil1" d="M1828.78 2020.35l442.14 -441.64 -243.93 -2.02 -0.64 -856.31c-20.26,13.88 -60.19,58.42 -80.64,78.81 -38.33,38.23 -306.56,302.55 -309.93,312.91l-1.34 465.74 0.53 -184.73c-30.83,96.44 -114.46,169.86 -216.48,185.86l-28.98 0.15 439.27 441.21z"/>
    <path class="fil1" d="M192.7 757.44l243.9 1.53 0.84 856.22c18.53,-13.01 389.15,-387.71 390.44,-391.66l0.71 -250.71c21.33,-112.7 113.75,-201.06 228.43,-216.27l17.1 -0.09 -439.31 -441.2 -442.1 442.18zm636.49 0.32l227.82 -1.21 0 0 -227.82 1.21z"/>
    <path class="fil1" d="M1634.29 365.21l-856.48 0 391.1 390.59c6.51,2.5 130.42,2.83 249.04,2.6l0 0c109.13,19.57 195.92,105.69 216.48,214.48l0 28.19 440.84 -436.98c-6.87,-14.89 -396.04,-401.62 -439.96,-443.73l-1.02 244.83z"/>
   </g>
  </g>
 </g>
</svg>
